<svg xmlns="http://www.w3.org/2000/svg" xmlns:xlink="http://www.w3.org/1999/xlink" width="188" height="56" viewBox="0 0 188 56">
    <defs>
        <path id="prefix__a" d="M0 0L87.836 0 87.836 55.918 0 55.918z"/>
    </defs>
    <g fill="none" fill-rule="evenodd">
        <path fill="#000" d="M30.985 12.426h-4.953c-.76 0-1.376.57-1.376 1.273v28.52c0 .703.616 1.273 1.376 1.273h4.953c.76 0 1.376-.57 1.376-1.274V13.7c0-.703-.616-1.273-1.376-1.273M20.25 36.362H7.412V13.699c0-.703-.593-1.273-1.324-1.273H1.324C.593 12.426 0 12.996 0 13.7v28.52c0 .703.593 1.273 1.324 1.273H20.25c.731 0 1.324-.57 1.324-1.274v-4.583c0-.703-.593-1.273-1.324-1.273M88.053 19.556c.731 0 1.324-.57 1.324-1.274V13.7c0-.703-.593-1.273-1.324-1.273H69.127c-.731 0-1.324.57-1.324 1.273v28.52c0 .703.593 1.273 1.324 1.273h18.926c.731 0 1.324-.57 1.324-1.274v-4.583c0-.703-.593-1.273-1.324-1.273H75.215v-4.838h12.838c.731 0 1.324-.57 1.324-1.273v-4.584c0-.703-.593-1.273-1.324-1.273H75.215v-4.838h12.838zM61.853 12.432h-4.778c-.733 0-1.327.57-1.327 1.272v16.5L43.245 13.056c-.355-.487-.883-.625-1.47-.625-.074-.013-.15 0-.227 0H36.77c-.733 0-1.327.57-1.327 1.272V42.22c0 .703.594 1.273 1.327 1.273h4.778c.732 0 1.327-.57 1.327-1.273V24.986l13.036 17.878c.047.064.098.123.152.177.225.254.551.426.919.45h4.87c.734 0 1.328-.57 1.328-1.272V13.704c0-.702-.594-1.272-1.327-1.272"/>
        <g transform="translate(100.164)">
            <mask id="prefix__b" fill="#fff">
                <use xlink:href="#prefix__a"/>
            </mask>
            <path fill="#08BF5B" d="M84.642 55.918H3.194C1.43 55.918 0 54.467 0 52.676V3.242C0 1.452 1.43 0 3.194 0h81.448c1.764 0 3.194 1.451 3.194 3.242v49.434c0 1.79-1.43 3.242-3.194 3.242" mask="url(#prefix__b)"/>
        </g>
        <path fill="#FFF" d="M126.723 23.033c0-1.924-1.305-3.395-3.082-3.395h-3.807v6.79h3.807c1.777 0 3.082-1.471 3.082-3.395m5.802 0c0 5.017-3.88 9.053-8.884 9.053h-3.807v7.41c0 .491-.382.89-.854.89h-4.093c-.472 0-.854-.399-.854-.89V14.869c0-.49.382-.889.854-.889h8.754c5.004 0 8.884 4.037 8.884 9.054M148.513 28.736c0-2.868-1.862-4.666-4.431-4.666-2.57 0-4.431 1.798-4.431 4.666 0 2.868 1.862 4.665 4.43 4.665 2.57 0 4.432-1.797 4.432-4.665m5.585-9.087v18.173c0 .262-.206.474-.461.474h-4.662c-.255 0-.462-.212-.462-.474V36.5c-1.228 1.453-3.053 2.333-5.548 2.333-4.878 0-8.9-4.398-8.9-10.096 0-5.699 4.022-10.097 8.9-10.097 2.495 0 4.32.88 5.548 2.333V19.65c0-.262.207-.474.462-.474h4.662c.255 0 .461.212.461.474M171.438 19.13l-4.173 10.931-4.314-10.938c-.116-.293-.39-.484-.694-.484h-4.627c-.32 0-.537.338-.416.645l7.199 18.25-2.623 6.871c-.117.307.1.64.417.64h4.63c.307 0 .583-.195.696-.491l9.648-25.275c.117-.307-.1-.64-.418-.64h-4.63c-.306 0-.582.195-.695.492"/>
    </g>
</svg>
